<?xml version="1.0" encoding="utf-8"?>
<!-- Generator: Adobe Illustrator 16.0.3, SVG Export Plug-In . SVG Version: 6.00 Build 0)  -->
<!DOCTYPE svg PUBLIC "-//W3C//DTD SVG 1.1//EN" "http://www.w3.org/Graphics/SVG/1.1/DTD/svg11.dtd">
<svg version="1.1" id="Layer_1" xmlns="http://www.w3.org/2000/svg" xmlns:xlink="http://www.w3.org/1999/xlink" x="0px" y="0px"
	 width="500px" height="500px" viewBox="-243.5 -244 500 500" enable-background="new -243.5 -244 500 500" xml:space="preserve">
<path fill="#D2D2D2" d="M1.376-208.782c1.836-0.776,3.796-1.165,5.79-1.165c1.979,0,3.954,0.389,5.773,1.165l201.371,80.506
	c2.896,1.13,5.437,3.107,7.202,5.667c1.801,2.578,2.754,5.633,2.825,8.756c0,0.566,0,1.06,0,1.661v239.064
	c0,3.071-0.918,6.108-2.684,8.686c-1.695,2.578-4.167,4.556-7.063,5.686L13.15,222.879c-1.959,0.776-4.061,1.13-6.161,1.059
	c-2.012,0-4.025-0.353-5.913-1.059l-201.212-81.636c-2.86-1.13-5.332-3.107-7.045-5.686c-1.729-2.577-2.63-5.614-2.612-8.686
	v-238.463c-0.054-0.478-0.054-0.972,0-1.449v-0.813c0.018-3.124,0.971-6.196,2.771-8.756c1.783-2.577,4.308-4.555,7.238-5.667
	L1.376-208.782z M22.455,185.733l170.563-69.278V-90.601L22.755-22.506L22.455,185.733z M-178.792-91.006v207.461L-8.545,185.45
	V-22.859L-178.792-91.006z M7.236-177.797l-159.793,63.945L7.236-49.994l159.617-63.858L7.236-177.797z"/>
</svg>
